<svg width="17" height="18" viewBox="0 0 17 18" fill="none" xmlns="http://www.w3.org/2000/svg">
<path d="M14.375 3.09155C13.611 2.31982 12.701 1.70794 11.6981 1.2916C10.6951 0.875249 9.6193 0.66277 8.53337 0.666554C3.98337 0.666554 0.275041 4.37489 0.275041 8.92489C0.275041 10.3832 0.658374 11.7999 1.37504 13.0499L0.208374 17.3332L4.58337 16.1832C5.79171 16.8416 7.15004 17.1916 8.53337 17.1916C13.0834 17.1916 16.7917 13.4832 16.7917 8.93322C16.7917 6.72489 15.9334 4.64989 14.375 3.09155ZM8.53337 15.7916C7.30004 15.7916 6.09171 15.4582 5.03337 14.8332L4.78337 14.6832L2.18337 15.3666L2.87504 12.8332L2.70837 12.5749C2.02316 11.4807 1.65932 10.2159 1.65837 8.92489C1.65837 5.14155 4.74171 2.05822 8.52504 2.05822C10.3584 2.05822 12.0834 2.77489 13.375 4.07489C14.0146 4.71152 14.5215 5.46877 14.8662 6.30274C15.2109 7.13671 15.3867 8.03081 15.3834 8.93322C15.4 12.7166 12.3167 15.7916 8.53337 15.7916ZM12.3 10.6582C12.0917 10.5582 11.075 10.0582 10.8917 9.98322C10.7 9.91655 10.5667 9.88322 10.425 10.0832C10.2834 10.2916 9.89171 10.7582 9.77504 10.8916C9.65837 11.0332 9.53337 11.0499 9.32504 10.9416C9.11671 10.8416 8.45004 10.6166 7.66671 9.91655C7.05004 9.36655 6.64171 8.69155 6.51671 8.48322C6.40004 8.27489 6.50004 8.16655 6.60837 8.05822C6.70004 7.96655 6.81671 7.81655 6.91671 7.69989C7.01671 7.58322 7.05837 7.49155 7.12504 7.35822C7.19171 7.21655 7.15837 7.09989 7.10837 6.99989C7.05837 6.89989 6.64171 5.88322 6.47504 5.46655C6.30837 5.06655 6.13337 5.11655 6.00837 5.10822H5.60837C5.46671 5.10822 5.25004 5.15822 5.05837 5.36655C4.87504 5.57489 4.34171 6.07489 4.34171 7.09155C4.34171 8.10822 5.08337 9.09155 5.18337 9.22489C5.28337 9.36655 6.64171 11.4499 8.70837 12.3416C9.20004 12.5582 9.58337 12.6832 9.88337 12.7749C10.375 12.9332 10.825 12.9082 11.1834 12.8582C11.5834 12.7999 12.4084 12.3582 12.575 11.8749C12.75 11.3916 12.75 10.9832 12.6917 10.8916C12.6334 10.7999 12.5084 10.7582 12.3 10.6582Z" fill="white"/>
</svg>
