<svg width="16" height="18" viewBox="0 0 16 18" fill="none" xmlns="http://www.w3.org/2000/svg">
<path d="M13 12.3998C12.3667 12.3998 11.8 12.6498 11.3667 13.0415L5.425 9.58317C5.46667 9.3915 5.5 9.19984 5.5 8.99984C5.5 8.79984 5.46667 8.60817 5.425 8.4165L11.3 4.9915C11.75 5.40817 12.3417 5.6665 13 5.6665C13.663 5.6665 14.2989 5.40311 14.7678 4.93427C15.2366 4.46543 15.5 3.82955 15.5 3.1665C15.5 2.50346 15.2366 1.86758 14.7678 1.39874C14.2989 0.929896 13.663 0.666504 13 0.666504C12.337 0.666504 11.7011 0.929896 11.2322 1.39874C10.7634 1.86758 10.5 2.50346 10.5 3.1665C10.5 3.3665 10.5333 3.55817 10.575 3.74984L4.7 7.17484C4.25 6.75817 3.65833 6.49984 3 6.49984C2.33696 6.49984 1.70107 6.76323 1.23223 7.23207C0.763392 7.70091 0.5 8.3368 0.5 8.99984C0.5 9.66288 0.763392 10.2988 1.23223 10.7676C1.70107 11.2364 2.33696 11.4998 3 11.4998C3.65833 11.4998 4.25 11.2415 4.7 10.8248L10.6333 14.2832C10.5917 14.4582 10.5667 14.6415 10.5667 14.8332C10.5667 16.1748 11.6583 17.2582 13 17.2582C14.3417 17.2582 15.4333 16.1748 15.4333 14.8332C15.4333 14.1878 15.177 13.5689 14.7206 13.1125C14.2643 12.6562 13.6454 12.3998 13 12.3998Z" fill="white"/>
</svg>
