<svg width="20" height="20" viewBox="0 0 20 20" fill="none" xmlns="http://www.w3.org/2000/svg">
<path d="M15.9611 5.04506C14.9161 4.55791 13.7847 4.20433 12.6061 4.00004C12.5957 3.99971 12.5854 4.00164 12.5759 4.00572C12.5664 4.00979 12.5579 4.0159 12.5511 4.02361C12.4096 4.2829 12.2446 4.62077 12.1346 4.88006C10.8845 4.69148 9.61318 4.69148 8.36308 4.88006C8.25308 4.61291 8.08807 4.2829 7.93878 4.02361C7.93092 4.00789 7.90735 4.00004 7.88378 4.00004C6.70518 4.20433 5.58157 4.55791 4.52869 5.04506C4.52083 5.04506 4.51297 5.05292 4.50512 5.06078C2.36791 8.25872 1.77861 11.3702 2.06933 14.4503C2.06933 14.466 2.07719 14.4818 2.09291 14.4896C3.50723 15.5268 4.86655 16.1554 6.21016 16.5718C6.23374 16.5797 6.25731 16.5718 6.26516 16.5561C6.57946 16.1239 6.86232 15.6682 7.1059 15.1889C7.12162 15.1575 7.1059 15.1261 7.07447 15.1182C6.6266 14.9453 6.20231 14.741 5.78587 14.5053C5.75444 14.4896 5.75444 14.4425 5.77801 14.4189C5.86444 14.356 5.95087 14.2853 6.0373 14.2225C6.05302 14.2067 6.07659 14.2067 6.0923 14.2146C8.79523 15.4482 11.7103 15.4482 14.3818 14.2146C14.3975 14.2067 14.4211 14.2067 14.4368 14.2225C14.5232 14.2932 14.6097 14.356 14.6961 14.4268C14.7275 14.4503 14.7275 14.4975 14.6883 14.5132C14.2797 14.7568 13.8475 14.9532 13.3996 15.1261C13.3682 15.1339 13.3604 15.1732 13.3682 15.1968C13.6197 15.6761 13.9025 16.1318 14.209 16.564C14.2325 16.5718 14.2561 16.5797 14.2797 16.5718C15.6311 16.1554 16.9905 15.5268 18.4048 14.4896C18.4205 14.4818 18.4284 14.466 18.4284 14.4503C18.7741 10.8909 17.8548 7.803 15.9926 5.06078C15.9847 5.05292 15.9769 5.04506 15.9611 5.04506ZM7.51448 12.5724C6.70518 12.5724 6.02944 11.826 6.02944 10.9067C6.02944 9.98734 6.68946 9.24089 7.51448 9.24089C8.34736 9.24089 9.00738 9.9952 8.99952 10.9067C8.99952 11.826 8.33951 12.5724 7.51448 12.5724ZM12.9911 12.5724C12.1818 12.5724 11.506 11.826 11.506 10.9067C11.506 9.98734 12.166 9.24089 12.9911 9.24089C13.8239 9.24089 14.484 9.9952 14.4761 10.9067C14.4761 11.826 13.8239 12.5724 12.9911 12.5724Z" fill="white" fill-opacity="0.6"/>
</svg>
