<svg width="20" height="20" viewBox="0 0 20 20" fill="none" xmlns="http://www.w3.org/2000/svg">
<path d="M18.4299 4.57075C17.8251 4.84563 17.1733 5.02626 16.4979 5.11265C17.189 4.69641 17.7231 4.03669 17.9744 3.24347C17.3225 3.63615 16.6 3.91103 15.8382 4.06811C15.2177 3.39269 14.3459 3 13.3564 3C11.5108 3 10.0028 4.50792 10.0028 6.36925C10.0028 6.63628 10.0343 6.89545 10.0892 7.13892C7.2933 6.99755 4.80367 5.65456 3.14653 3.62044C2.85594 4.11523 2.69101 4.69641 2.69101 5.309C2.69101 6.4792 3.28004 7.51589 4.19108 8.10492C3.63346 8.10492 3.11512 7.94785 2.6596 7.71224V7.7358C2.6596 9.36937 3.82195 10.7359 5.36128 11.0422C4.86707 11.1775 4.34823 11.1963 3.84551 11.0972C4.05882 11.7667 4.47659 12.3525 5.04008 12.7723C5.60357 13.1921 6.28445 13.4248 6.987 13.4376C5.79609 14.3804 4.31987 14.89 2.80097 14.8827C2.53394 14.8827 2.26691 14.867 1.99989 14.8356C3.49209 15.7937 5.26704 16.3513 7.16764 16.3513C13.3564 16.3513 16.757 11.215 16.757 6.76194C16.757 6.61272 16.757 6.47135 16.7492 6.32213C17.4089 5.8509 17.9744 5.25402 18.4299 4.57075Z" fill="white" fill-opacity="0.6"/>
</svg>
