<svg width="140" height="61" viewBox="0 0 140 61" fill="none" xmlns="http://www.w3.org/2000/svg">
<path d="M32.7905 57.4744C28.175 57.4743 23.6344 56.3078 19.5907 54.0835C15.547 51.8592 12.1314 48.6492 9.66136 44.7518C7.19129 40.8543 5.7469 36.396 5.46241 31.791C5.17792 27.186 6.06257 22.5839 8.03414 18.4123C10.0057 14.2407 13.0002 10.6349 16.7394 7.93015C20.4786 5.22539 24.8411 3.50936 29.4215 2.94156C34.0019 2.37375 38.6516 2.97259 42.9384 4.68242C47.2253 6.39225 51.0102 9.15758 53.9414 12.7214C50.3023 7.94256 45.2551 4.42536 39.5107 2.66529C33.7664 0.905229 27.6143 0.991002 21.9213 2.91053C16.2283 4.83006 11.2812 8.48661 7.77684 13.3651C4.2725 18.2435 2.38757 24.0981 2.38757 30.1039C2.38757 36.1098 4.2725 41.9643 7.77684 46.8428C11.2812 51.7213 16.2283 55.3778 21.9213 57.2974C27.6143 59.2169 33.7664 59.3027 39.5107 57.5426C45.2551 55.7825 50.3023 52.2653 53.9414 47.4865C51.3753 50.6125 48.1469 53.1301 44.4892 54.8573C40.8315 56.5846 36.8358 57.4784 32.7905 57.4744Z" fill="url(#paint0_linear_119_1256)"/>
<path d="M84.4249 44.4515C84.2157 44.4515 84.0151 44.3684 83.8671 44.2205C83.7192 44.0727 83.6361 43.8721 83.6361 43.663V37.0043C83.6361 36.7952 83.7192 36.5946 83.8671 36.4468C84.0151 36.2989 84.2157 36.2158 84.4249 36.2158C84.6341 36.2158 84.8348 36.2989 84.9827 36.4468C85.1306 36.5946 85.2137 36.7952 85.2137 37.0043V43.663C85.2137 43.8721 85.1306 44.0727 84.9827 44.2205C84.8348 44.3684 84.6341 44.4515 84.4249 44.4515Z" fill="#AB4DAB"/>
<path d="M68.7887 36.3034C68.4442 36.2998 68.1023 36.3641 67.7825 36.4926C67.5146 36.6053 67.2812 36.7866 67.1059 37.0183C66.9354 37.2473 66.8158 37.5102 66.7553 37.7893C66.6934 38.0961 66.6629 38.4085 66.6642 38.7215V42.1209C66.6629 42.4351 66.6934 42.7486 66.7553 43.0566C66.8158 43.3357 66.9354 43.5985 67.1059 43.8276C67.2832 44.0574 67.516 44.2383 67.7825 44.3533C68.1023 44.4817 68.4442 44.5461 68.7887 44.5425H72.1859C72.3719 44.5425 72.5502 44.4687 72.6817 44.3372C72.8132 44.2058 72.8871 44.0275 72.8871 43.8416C72.8871 43.6557 72.8132 43.4774 72.6817 43.346C72.5502 43.2146 72.3719 43.1407 72.1859 43.1407H69.2164C68.8658 43.1407 68.6239 43.0356 68.5153 42.8428C68.4002 42.6275 68.3434 42.3859 68.3505 42.1419V38.8196C68.3414 38.5575 68.3981 38.2973 68.5153 38.0626C68.6204 37.8734 68.8658 37.7753 69.2164 37.7683H72.1859C72.3719 37.7683 72.5502 37.6944 72.6817 37.563C72.8132 37.4315 72.8871 37.2532 72.8871 37.0673C72.8871 36.8815 72.8132 36.7032 72.6817 36.5717C72.5502 36.4403 72.3719 36.3664 72.1859 36.3664L68.7887 36.3034Z" fill="#AB4DAB"/>
<path d="M72.1859 39.7417H69.7037C69.3087 39.7417 68.9885 40.0618 68.9885 40.4566V40.4812C68.9885 40.876 69.3087 41.1961 69.7037 41.1961H72.1859C72.5809 41.1961 72.9011 40.876 72.9011 40.4812V40.4566C72.9011 40.0618 72.5809 39.7417 72.1859 39.7417Z" fill="#AB4DAB"/>
<path d="M90.5988 36.3702C90.5601 36.2928 90.5005 36.2276 90.4268 36.182C90.3531 36.1364 90.2682 36.1123 90.1816 36.1123C90.0949 36.1123 90.01 36.1364 89.9363 36.182C89.8626 36.2276 89.803 36.2928 89.7644 36.3702L87.3979 41.7602C87.9625 41.5705 88.5552 41.4781 89.1508 41.4869H89.2209L89.9957 39.5559C90.0834 39.3526 90.2727 39.3526 90.3463 39.5559L91.363 42.1002H89.3682C89.3682 42.1002 87.8712 42.0476 87.177 42.6749C86.9357 42.8899 86.7433 43.154 86.6126 43.4494C86.5599 43.5694 86.5381 43.7007 86.5492 43.8312C86.5603 43.9618 86.6039 44.0875 86.676 44.1969C86.7482 44.3063 86.8466 44.3959 86.9623 44.4576C87.0779 44.5192 87.2072 44.5509 87.3383 44.5498C87.4909 44.5502 87.6402 44.5059 87.7679 44.4225C87.8956 44.339 87.9961 44.2201 88.057 44.0802C88.1518 43.8875 88.3035 43.7284 88.4915 43.6244C88.6796 43.5204 88.895 43.4764 89.1088 43.4985H91.9135L92.1273 44.0312C92.1889 44.1843 92.2949 44.3156 92.4317 44.408C92.5686 44.5005 92.7299 44.5499 92.8951 44.5498C93.033 44.5504 93.1688 44.5165 93.2902 44.4513C93.4116 44.386 93.5148 44.2915 93.5904 44.1762C93.666 44.061 93.7116 43.9287 93.723 43.7913C93.7344 43.654 93.7114 43.516 93.6559 43.3898L90.5988 36.3702Z" fill="#AB4DAB"/>
<path d="M81.7429 38.676C81.5447 38.1665 81.2316 37.7096 80.8279 37.3408C80.0302 36.6301 78.9894 36.2536 77.9215 36.2895H75.3762C75.1903 36.2895 75.0119 36.3633 74.8804 36.4947C74.7489 36.6262 74.675 36.8045 74.675 36.9904C74.675 37.1763 74.7489 37.3545 74.8804 37.486C75.0119 37.6174 75.1903 37.6913 75.3762 37.6913H76.2422H77.9215C78.2176 37.6932 78.5127 37.7273 78.8015 37.7929C79.1009 37.8625 79.3811 37.9978 79.6218 38.1889C79.8905 38.4099 80.1001 38.6941 80.2319 39.016C80.545 39.9159 80.545 40.8952 80.2319 41.7951C80.0971 42.1134 79.8907 42.3964 79.6288 42.6222C79.3917 42.8176 79.1119 42.9545 78.812 43.0217C78.5197 43.0877 78.2211 43.1218 77.9215 43.1233H76.5016C76.4328 43.1233 76.3668 43.096 76.3182 43.0473C76.2695 42.9987 76.2422 42.9327 76.2422 42.864V39.009C76.2422 38.8231 76.1683 38.6448 76.0368 38.5134C75.9053 38.3819 75.727 38.3081 75.541 38.3081H75.3762C75.1903 38.3081 75.0119 38.3819 74.8804 38.5134C74.7489 38.6448 74.675 38.8231 74.675 39.009V43.8417C74.675 44.0276 74.7489 44.2059 74.8804 44.3374C75.0119 44.4688 75.1903 44.5426 75.3762 44.5426H77.9145C78.464 44.548 79.0104 44.4603 79.5307 44.2833C80.0085 44.1179 80.4475 43.8567 80.8208 43.5158C81.2245 43.147 81.5377 42.6901 81.7359 42.1806C82.1447 41.0481 82.1447 39.8085 81.7359 38.676H81.7429Z" fill="#AB4DAB"/>
<path d="M58.8391 36.5032C58.7995 36.4268 58.7396 36.3627 58.666 36.3179C58.5925 36.2732 58.508 36.2495 58.4219 36.2495C58.3358 36.2495 58.2513 36.2732 58.1777 36.3179C58.1041 36.3627 58.0443 36.4268 58.0047 36.5032L54.9195 43.5403C54.8655 43.6649 54.8433 43.8009 54.8549 43.9362C54.8665 44.0715 54.9115 44.2017 54.9859 44.3153C55.0602 44.4289 55.1616 44.5223 55.281 44.587C55.4004 44.6518 55.534 44.6859 55.6698 44.6863C55.8326 44.6862 55.9918 44.6375 56.1267 44.5463C56.2616 44.4551 56.3662 44.3257 56.427 44.1747L58.2255 39.6924C58.3132 39.4856 58.5025 39.4856 58.5761 39.6924L60.3747 44.1747C60.4355 44.3257 60.5401 44.4551 60.675 44.5463C60.8099 44.6375 60.969 44.6862 61.1319 44.6863H61.16C61.2958 44.6862 61.4295 44.6522 61.5489 44.5875C61.6683 44.5227 61.7696 44.4292 61.8437 44.3154C61.9179 44.2017 61.9625 44.0712 61.9735 43.9359C61.9845 43.8005 61.9615 43.6646 61.9067 43.5403L58.8391 36.5032Z" fill="#AB4DAB"/>
<path d="M62.5483 36.5032C62.5087 36.4268 62.4488 36.3627 62.3752 36.3179C62.3017 36.2732 62.2172 36.2495 62.1311 36.2495C62.045 36.2495 61.9605 36.2732 61.8869 36.3179C61.8133 36.3627 61.7535 36.4268 61.7139 36.5032L60.606 39.0265L61.4404 40.926L61.9347 39.6924C62.0224 39.4856 62.2117 39.4856 62.2853 39.6924L64.0874 44.1747C64.1482 44.3257 64.2528 44.4551 64.3877 44.5463C64.5226 44.6375 64.6818 44.6862 64.8446 44.6863H64.8692C65.0053 44.6868 65.1394 44.6533 65.2593 44.5887C65.3791 44.5242 65.481 44.4308 65.5555 44.3169C65.63 44.2031 65.6749 44.0724 65.6861 43.9368C65.6973 43.8011 65.6743 43.6649 65.6194 43.5404L62.5483 36.5032Z" fill="#AB4DAB"/>
<path d="M32.0086 32.96C31.201 32.9656 30.4011 32.8033 29.6596 32.4834C28.9414 32.1771 28.2873 31.7384 27.7314 31.1902C27.1796 30.6372 26.7382 29.9843 26.4307 29.2662C26.1138 28.5197 25.9504 27.7169 25.9504 26.9059C25.9504 26.0949 26.1138 25.2922 26.4307 24.5456C26.7361 23.8212 27.1776 23.1621 27.7314 22.6041C28.2864 22.0522 28.9406 21.6099 29.6596 21.3004C30.4052 20.9858 31.2063 20.8237 32.0156 20.8237C32.8249 20.8237 33.626 20.9858 34.3715 21.3004C35.8237 21.9221 36.9801 23.0794 37.6005 24.5316C37.9151 25.2788 38.0771 26.0812 38.0771 26.8919C38.0771 27.7026 37.9151 28.5051 37.6005 29.2522C36.975 30.7058 35.8137 31.8629 34.3575 32.4834C33.6157 32.8021 32.816 32.9644 32.0086 32.96ZM32.0086 22.916C31.4938 22.9119 30.9846 23.0233 30.5186 23.2419C30.0635 23.4534 29.6521 23.7482 29.3056 24.1111C28.9553 24.4804 28.6771 24.9118 28.4852 25.3832C28.2839 25.862 28.1803 26.3761 28.1803 26.8954C28.1803 27.4147 28.2839 27.9288 28.4852 28.4076C28.6788 28.8781 28.9568 29.3092 29.3056 29.6798C29.6509 30.0458 30.0625 30.3431 30.5186 30.5559C30.9853 30.7728 31.4939 30.8852 32.0086 30.8852C32.5233 30.8852 33.0318 30.7728 33.4986 30.5559C33.9529 30.3419 34.3632 30.0447 34.7081 29.6798C35.0545 29.3074 35.3322 28.8767 35.5285 28.4076C35.7274 27.9283 35.8298 27.4144 35.8298 26.8954C35.8298 26.3764 35.7274 25.8626 35.5285 25.3832C35.3342 24.913 35.0563 24.482 34.7081 24.1111C34.3609 23.749 33.9496 23.4543 33.4951 23.2419C33.032 23.0255 32.5268 22.9142 32.0156 22.916H32.0086Z" fill="#AB4DAB"/>
<path d="M45.4151 32.9601C44.6076 32.9653 43.8077 32.8031 43.0662 32.4835C42.3495 32.1763 41.6967 31.7377 41.1415 31.1903C40.5897 30.6373 40.1483 29.9843 39.8408 29.2663C39.5238 28.5197 39.3605 27.717 39.3605 26.906C39.3605 26.095 39.5238 25.2923 39.8408 24.5457C40.1473 23.825 40.5887 23.1696 41.1415 22.6147C41.6958 22.0636 42.3486 21.6214 43.0662 21.311C43.8124 20.9965 44.614 20.8345 45.4239 20.8345C46.2337 20.8345 47.0354 20.9965 47.7816 21.311C48.4991 21.6214 49.152 22.0636 49.7063 22.6147C50.2575 23.1655 50.6989 23.816 51.007 24.5317C51.3239 25.2782 51.4873 26.081 51.4873 26.892C51.4873 27.703 51.3239 28.5057 51.007 29.2523C50.7011 29.9753 50.2596 30.6331 49.7063 31.1903C49.152 31.7414 48.4991 32.1836 47.7816 32.494C47.0334 32.811 46.2277 32.9697 45.4151 32.9601ZM45.4151 22.9161C44.9004 22.9127 44.3914 23.024 43.9251 23.242C43.4711 23.4535 43.0608 23.7483 42.7156 24.1111C42.3654 24.4812 42.0862 24.9124 41.8917 25.3833C41.6928 25.8626 41.5903 26.3765 41.5903 26.8955C41.5903 27.4145 41.6928 27.9283 41.8917 28.4077C42.0879 28.8776 42.367 29.3085 42.7156 29.6798C43.0596 30.0458 43.4701 30.3432 43.9251 30.556C44.3925 30.773 44.9016 30.8854 45.4169 30.8854C45.9322 30.8854 46.4413 30.773 46.9086 30.556C47.3637 30.3432 47.7741 30.0458 48.1181 29.6798C48.4668 29.3085 48.7458 28.8776 48.942 28.4077C49.141 27.9283 49.2434 27.4145 49.2434 26.8955C49.2434 26.3765 49.141 25.8626 48.942 25.3833C48.7476 24.9124 48.4683 24.4812 48.1181 24.1111C47.7729 23.7483 47.3626 23.4535 46.9086 23.242C46.4434 23.0247 45.9357 22.9133 45.4221 22.9161H45.4151Z" fill="#AB4DAB"/>
<path d="M16.2251 21.2725C16.1697 21.1635 16.0852 21.0719 15.9809 21.008C15.8767 20.944 15.7567 20.9102 15.6344 20.9102C15.5121 20.9102 15.3921 20.944 15.2878 21.008C15.1836 21.0719 15.0991 21.1635 15.0436 21.2725L10.6683 31.2499C10.5919 31.4255 10.5602 31.6172 10.576 31.808C10.5917 31.9988 10.6544 32.1827 10.7586 32.3434C10.8627 32.504 11.005 32.6364 11.1728 32.7288C11.3406 32.8211 11.5286 32.8705 11.7201 32.8725C11.9514 32.8726 12.1774 32.8036 12.3692 32.6743C12.561 32.5451 12.7097 32.3615 12.7964 32.1471L15.3487 25.7898C15.4714 25.499 15.7378 25.499 15.8605 25.7898L18.4128 32.1436C18.4984 32.3579 18.6464 32.5417 18.8377 32.671C19.029 32.8004 19.2547 32.8693 19.4856 32.869H19.5242C19.7157 32.867 19.9037 32.8176 20.0714 32.7253C20.2392 32.6329 20.3815 32.5005 20.4856 32.3399C20.5898 32.1792 20.6525 31.9953 20.6683 31.8045C20.684 31.6137 20.6523 31.422 20.5759 31.2464L16.2251 21.2725Z" fill="#AB4DAB"/>
<path d="M21.484 21.2727C21.4281 21.1638 21.3432 21.0725 21.2386 21.0087C21.1341 20.9449 21.014 20.9111 20.8916 20.9111C20.7691 20.9111 20.649 20.9449 20.5445 21.0087C20.4399 21.0725 20.355 21.1638 20.2991 21.2727L18.7319 24.8473L19.9099 27.5423L20.6111 25.7901C20.7338 25.4992 21.0002 25.4992 21.1229 25.7901L23.6752 32.1438C23.7619 32.3582 23.9106 32.5418 24.1024 32.671C24.2942 32.8003 24.5202 32.8693 24.7515 32.8692H24.7866C24.9784 32.8681 25.1669 32.8192 25.3352 32.7271C25.5034 32.635 25.6462 32.5026 25.7505 32.3416C25.8548 32.1807 25.9174 31.9964 25.9328 31.8052C25.9481 31.6141 25.9157 31.4221 25.8383 31.2466L21.484 21.2727Z" fill="#AB4DAB"/>
<path d="M72.6171 30.542H68.9885C68.4802 30.542 68.1471 30.3949 67.9999 30.125C67.8344 29.7999 67.7536 29.4383 67.765 29.0736V22.019C67.765 21.7048 67.6401 21.4036 67.4179 21.1814C67.1957 20.9593 66.8943 20.8345 66.58 20.8345C66.2657 20.8345 65.9643 20.9593 65.7421 21.1814C65.5199 21.4036 65.395 21.7048 65.395 22.019V29.0877C65.3916 29.5302 65.4351 29.9719 65.5247 30.4054C65.6047 30.7991 65.7711 31.1702 66.0121 31.4918C66.2575 31.8207 66.5852 32.0793 66.9621 32.2417C67.4144 32.4236 67.8981 32.5141 68.3855 32.5081H72.6206C72.88 32.5081 73.1288 32.4051 73.3123 32.2217C73.4957 32.0383 73.5987 31.7896 73.5987 31.5303C73.5987 31.271 73.4957 31.0223 73.3123 30.8389C73.1288 30.6556 72.88 30.5526 72.6206 30.5526L72.6171 30.542Z" fill="#AB4DAB"/>
<path d="M63.1057 29.8483V22.1629C63.1057 22.0161 63.0768 21.8707 63.0206 21.7351C62.9644 21.5994 62.882 21.4762 62.7781 21.3724C62.6743 21.2686 62.551 21.1862 62.4153 21.13C62.2796 21.0738 62.1342 21.0449 61.9873 21.0449C61.8405 21.0449 61.695 21.0738 61.5593 21.13C61.4237 21.1862 61.3004 21.2686 61.1965 21.3724C61.0927 21.4762 61.0103 21.5994 60.9541 21.7351C60.8979 21.8707 60.869 22.0161 60.869 22.1629V27.2129L63.1057 29.8483Z" fill="#AB4DAB"/>
<path d="M60.3921 27.9803L54.313 21.0273C54.1935 20.9221 54.0463 20.8536 53.8889 20.83C53.7315 20.8063 53.5706 20.8286 53.4256 20.8941C53.2805 20.9596 53.1574 21.0655 53.071 21.1991C52.9847 21.3328 52.9387 21.4885 52.9387 21.6476V31.6005C52.9387 31.897 53.0565 32.1813 53.2662 32.391C53.476 32.6006 53.7604 32.7184 54.057 32.7184C54.204 32.7189 54.3497 32.6903 54.4856 32.6342C54.6215 32.5782 54.7449 32.4959 54.8489 32.392C54.9528 32.2881 55.0352 32.1647 55.0912 32.0288C55.1473 31.893 55.1759 31.7474 55.1754 31.6005V25.3589L61.7314 32.757C61.8508 32.8621 61.9981 32.9306 62.1555 32.9542C62.3129 32.9779 62.4737 32.9556 62.6188 32.8901C62.7639 32.8247 62.8869 32.7188 62.9733 32.5851C63.0597 32.4515 63.1056 32.2958 63.1057 32.1366V31.1659L60.3921 27.9803Z" fill="#AB4DAB"/>
<path d="M111.487 32.2696C111.197 32.2724 110.918 32.1604 110.711 31.9581C110.504 31.7557 110.386 31.4796 110.382 31.1902V21.9523C110.383 21.8081 110.412 21.6654 110.468 21.5325C110.524 21.3995 110.605 21.2789 110.708 21.1776C110.81 21.0763 110.932 20.9963 111.066 20.9422C111.199 20.8881 111.343 20.861 111.487 20.8624C111.776 20.8624 112.054 20.9771 112.259 21.1814C112.464 21.3857 112.58 21.6629 112.581 21.9523V31.1902C112.577 31.4778 112.46 31.7523 112.255 31.9543C112.051 32.1564 111.774 32.2697 111.487 32.2696Z" fill="#AB4DAB"/>
<path d="M80.7858 21.0763C80.7316 20.9695 80.6489 20.8797 80.5468 20.8171C80.4447 20.7544 80.3272 20.7212 80.2074 20.7212C80.0875 20.7212 79.97 20.7544 79.8679 20.8171C79.7658 20.8797 79.6831 20.9695 79.6289 21.0763L76.3544 28.5445C77.1308 28.281 77.9466 28.1518 78.7664 28.1625H78.8611L79.9339 25.492C80.0531 25.2082 80.3125 25.2082 80.4352 25.492L81.8376 29.0141H79.0715C79.0715 29.0141 76.9995 28.944 76.0354 29.8096C75.7022 30.1095 75.4358 30.4761 75.2536 30.8855C75.1822 31.0519 75.1532 31.2334 75.1693 31.4138C75.1854 31.5941 75.246 31.7676 75.3458 31.9187C75.4455 32.0699 75.5813 32.1939 75.7408 32.2796C75.9003 32.3653 76.0786 32.4102 76.2597 32.41C76.471 32.4095 76.6776 32.3476 76.8544 32.2319C77.0312 32.1161 77.1705 31.9516 77.2554 31.7582C77.4237 31.3691 77.8164 30.9521 78.7314 30.9521H82.6159L82.9104 31.6916C82.998 31.8983 83.1444 32.0749 83.3313 32.1994C83.5182 32.324 83.7375 32.3911 83.9621 32.3925C84.1528 32.3921 84.3404 32.3443 84.508 32.2534C84.6756 32.1625 84.8179 32.0314 84.9222 31.8719C85.0265 31.7123 85.0895 31.5294 85.1055 31.3395C85.1215 31.1495 85.09 30.9586 85.0139 30.7839L80.7858 21.0763Z" fill="#AB4DAB"/>
<path d="M108.254 24.1395C107.981 23.4324 107.547 22.7988 106.985 22.2891C105.879 21.3112 104.439 20.7966 102.964 20.8522H99.4581C99.3285 20.8522 99.2001 20.8778 99.0803 20.9275C98.9605 20.9772 98.8518 21.0501 98.7603 21.1419C98.6687 21.2337 98.5963 21.3427 98.547 21.4626C98.4976 21.5824 98.4725 21.7109 98.473 21.8405C98.473 22.1017 98.5768 22.3522 98.7615 22.5368C98.9463 22.7215 99.1968 22.8253 99.4581 22.8253H100.657H102.985C103.395 22.8278 103.803 22.876 104.202 22.969C104.618 23.0611 105.007 23.2469 105.341 23.5122C105.711 23.8216 106.001 24.216 106.186 24.6617C106.425 25.2752 106.536 25.9312 106.512 26.5892C106.536 27.2449 106.425 27.8985 106.186 28.5096C106 28.9516 105.713 29.344 105.348 29.6556C105.02 29.9271 104.632 30.1168 104.216 30.2093C103.812 30.302 103.399 30.3491 102.985 30.3495H101.015C100.922 30.3495 100.833 30.3126 100.767 30.2469C100.701 30.1812 100.664 30.092 100.664 29.9991V24.6546C100.665 24.525 100.639 24.3966 100.59 24.2767C100.541 24.1568 100.468 24.0479 100.377 23.956C100.285 23.8642 100.177 23.7914 100.057 23.7417C99.937 23.692 99.8087 23.6664 99.679 23.6664H99.4651C99.3355 23.6664 99.2071 23.692 99.0873 23.7417C98.9676 23.7914 98.8588 23.8642 98.7673 23.956C98.6758 24.0479 98.6033 24.1568 98.554 24.2767C98.5047 24.3966 98.4795 24.525 98.48 24.6546V31.2922C98.48 31.5534 98.5838 31.8039 98.7685 31.9886C98.9533 32.1733 99.2038 32.277 99.4651 32.277H102.971C103.731 32.2874 104.487 32.1689 105.208 31.9266C105.869 31.7027 106.476 31.3448 106.992 30.8752C107.554 30.3662 107.989 29.7324 108.261 29.0248C108.832 27.4523 108.832 25.7295 108.261 24.157L108.254 24.1395Z" fill="#AB4DAB"/>
<path d="M136.655 26.028H136.347C135.919 28.341 134.559 30.4578 132.445 30.4578C131.941 30.4618 131.443 30.3528 130.986 30.1389C130.086 29.7183 129.375 28.9755 128.995 28.0572C128.798 27.5889 128.697 27.0861 128.697 26.5782C128.697 26.0704 128.798 25.5676 128.995 25.0993C129.368 24.1715 130.08 23.42 130.986 22.9966C131.443 22.7826 131.941 22.6736 132.445 22.6777C133.375 22.6379 134.297 22.8693 135.099 23.3436C135.628 23.5749 135.979 23.5503 136.343 23.1683C136.457 23.0473 136.542 22.9019 136.591 22.7433C136.64 22.5846 136.653 22.4168 136.627 22.2526C136.602 22.0884 136.54 21.9322 136.445 21.7957C136.35 21.6593 136.225 21.5462 136.08 21.4651C134.963 20.8737 133.709 20.586 132.445 20.631C131.656 20.6269 130.875 20.7868 130.152 21.1006C129.448 21.4016 128.808 21.8333 128.266 22.3728C127.722 22.9142 127.287 23.5556 126.986 24.2617C126.674 24.9874 126.513 25.769 126.513 26.559C126.513 27.3489 126.674 28.1305 126.986 28.8562C127.595 30.2728 128.724 31.4018 130.141 32.0103C130.865 32.3229 131.646 32.4817 132.434 32.4764C137.083 32.4764 138.012 28.4216 138.012 27.57C138.023 26.785 137.43 26.028 136.655 26.028Z" fill="#AB4DAB"/>
<path d="M133.297 27.9944H134.668C135.057 27.3969 135.325 26.729 135.456 26.0283H133.297C133.036 26.0283 132.787 26.1317 132.603 26.3157C132.419 26.4998 132.315 26.7493 132.315 27.0096C132.315 27.1387 132.34 27.2667 132.389 27.3862C132.438 27.5056 132.51 27.6142 132.601 27.7057C132.693 27.7972 132.801 27.8698 132.92 27.9193C133.04 27.9689 133.168 27.9944 133.297 27.9944Z" fill="#AB4DAB"/>
<path d="M96.7831 29.438V21.9453C96.7916 21.7968 96.7695 21.6481 96.7185 21.5083C96.6674 21.3685 96.5883 21.2406 96.4861 21.1325C96.3839 21.0243 96.2606 20.9382 96.1239 20.8793C95.9872 20.8204 95.8399 20.79 95.6911 20.79C95.5422 20.79 95.3949 20.8204 95.2582 20.8793C95.1215 20.9382 94.9983 21.0243 94.896 21.1325C94.7938 21.2406 94.7147 21.3685 94.6636 21.5083C94.6126 21.6481 94.5906 21.7968 94.599 21.9453V26.8797L96.7831 29.438Z" fill="#AB4DAB"/>
<path d="M94.1397 27.6263L88.1972 20.838C88.0811 20.7345 87.9374 20.6669 87.7836 20.6432C87.6298 20.6195 87.4725 20.6408 87.3305 20.7045C87.1885 20.7683 87.0681 20.8717 86.9836 21.0023C86.8992 21.133 86.8543 21.2852 86.8545 21.4408V31.1694C86.8554 31.4588 86.9711 31.736 87.1761 31.9403C87.3811 32.1446 87.6588 32.2593 87.9483 32.2593C88.0924 32.2607 88.2353 32.2335 88.3688 32.1794C88.5023 32.1252 88.6237 32.0452 88.7261 31.9438C88.8285 31.8425 88.9097 31.7218 88.9652 31.5889C89.0206 31.456 89.0492 31.3134 89.0492 31.1694V25.068L95.4544 32.2978C95.5714 32.3989 95.7149 32.4643 95.8679 32.4864C96.0209 32.5086 96.1771 32.4864 96.3179 32.4227C96.4588 32.3589 96.5784 32.2562 96.6627 32.1266C96.747 31.9971 96.7924 31.8461 96.7936 31.6916V30.7418L94.1397 27.6263Z" fill="#AB4DAB"/>
<path d="M124.63 29.4382V21.9455C124.63 21.6555 124.515 21.3774 124.31 21.1723C124.105 20.9672 123.827 20.8521 123.536 20.8521C123.246 20.8521 122.968 20.9672 122.763 21.1723C122.558 21.3774 122.443 21.6555 122.443 21.9455V26.8799L124.63 29.4382Z" fill="#AB4DAB"/>
<path d="M121.983 27.6261L116.044 20.8378C115.928 20.7348 115.784 20.6675 115.63 20.644C115.476 20.6206 115.319 20.6419 115.177 20.7055C115.035 20.7691 114.914 20.8722 114.829 21.0026C114.744 21.133 114.699 21.285 114.698 21.4406V31.1692C114.699 31.4586 114.815 31.7358 115.02 31.9401C115.225 32.1444 115.502 32.2591 115.792 32.2591C116.081 32.2591 116.359 32.1444 116.564 31.9401C116.769 31.7358 116.885 31.4586 116.886 31.1692V25.0678L123.291 32.2976C123.408 32.3987 123.551 32.4641 123.705 32.4862C123.858 32.5084 124.014 32.4862 124.155 32.4225C124.295 32.3587 124.415 32.256 124.499 32.1264C124.584 31.9969 124.629 31.8459 124.63 31.6914V30.7416L121.983 27.6261Z" fill="#AB4DAB"/>
<defs>
<linearGradient id="paint0_linear_119_1256" x1="28.1417" y1="4.53483" x2="28.2047" y2="55.1088" gradientUnits="userSpaceOnUse">
<stop stop-color="#AB4DAB"/>
<stop offset="1" stop-color="#AB4DAB" stop-opacity="0.2"/>
</linearGradient>
</defs>
</svg>
